{
    "asset": {
        "version": "2.0",
        "generator": "Open Asset Import Library (assimp v3.1.35440475)"
    },
    "accessors": [
        {
            "bufferView": 0,
            "byteOffset": 0,
            "componentType": 5126,
            "count": 468,
            "type": "VEC3",
            "max": [
                0.4609851837158203,
                0.035869404673576358,
                0.9995754957199097
            ],
            "min": [
                -0.5426175594329834,
                -0.11106015741825104,
                0.005938857793807983
            ]
        },
        {
            "bufferView": 1,
            "byteOffset": 0,
            "componentType": 5126,
            "count": 468,
            "type": "VEC3",
            "max": [
                0.9999200105667114,
                0.9836686849594116,
                0.998774528503418
            ],
            "min": [
                -0.9989287257194519,
                -0.9999998807907105,
                -0.9977546334266663
            ]
        },
        {
            "bufferView": 2,
            "byteOffset": 0,
            "componentType": 5126,
            "count": 468,
            "type": "VEC2",
            "max": [
                0.6272696256637573,
                0.6958403587341309
            ],
            "min": [
                0.009999999776482582,
                0.04720216989517212
            ]
        },
        {
            "bufferView": 3,
            "byteOffset": 0,
            "componentType": 5123,
            "count": 468,
            "type": "SCALAR",
            "max": [
                467.0
            ],
            "min": [
                0.0
            ]
        },
        {
            "bufferView": 4,
            "byteOffset": 0,
            "componentType": 5126,
            "count": 108,
            "type": "VEC3",
            "max": [
                0.40004274249076846,
                0.5934973359107971,
                0.944236159324646
            ],
            "min": [
                -0.4871464669704437,
                0.4943094253540039,
                0.05704692006111145
            ]
        },
        {
            "bufferView": 5,
            "byteOffset": 0,
            "componentType": 5126,
            "count": 108,
            "type": "VEC3",
            "max": [
                0.2706456482410431,
                1.0,
                0.2706456482410431
            ],
            "min": [
                -0.2706456482410431,
                0.9626789689064026,
                -0.2706456482410431
            ]
        },
        {
            "bufferView": 6,
            "byteOffset": 0,
            "componentType": 5126,
            "count": 108,
            "type": "VEC2",
            "max": [
                0.16731956601142884,
                0.43770021200180056
            ],
            "min": [
                0.009999999776482582,
                0.28042542934417727
            ]
        },
        {
            "bufferView": 7,
            "byteOffset": 0,
            "componentType": 5123,
            "count": 108,
            "type": "SCALAR",
            "max": [
                107.0
            ],
            "min": [
                0.0
            ]
        },
        {
            "bufferView": 8,
            "byteOffset": 0,
            "componentType": 5126,
            "count": 1224,
            "type": "VEC3",
            "max": [
                0.17550449073314668,
                1.0836195945739747,
                0.7354727387428284
            ],
            "min": [
                -0.26260820031166079,
                0.552740216255188,
                0.2658103108406067
            ]
        },
        {
            "bufferView": 9,
            "byteOffset": 0,
            "componentType": 5126,
            "count": 1224,
            "type": "VEC3",
            "max": [
                0.9899140000343323,
                0.6596723794937134,
                0.9995939135551453
            ],
            "min": [
                -0.9899140000343323,
                -0.4087792932987213,
                -0.9995939135551453
            ]
        },
        {
            "bufferView": 10,
            "byteOffset": 0,
            "componentType": 5126,
            "count": 1224,
            "type": "VEC2",
            "max": [
                0.47702792286872866,
                0.5982873439788818
            ],
            "min": [
                0.13756924867630006,
                0.011573314666748047
            ]
        },
        {
            "bufferView": 11,
            "byteOffset": 0,
            "componentType": 5123,
            "count": 1224,
            "type": "SCALAR",
            "max": [
                1223.0
            ],
            "min": [
                0.0
            ]
        },
        {
            "bufferView": 12,
            "byteOffset": 0,
            "componentType": 5126,
            "count": 588,
            "type": "VEC3",
            "max": [
                0.24122779071331025,
                1.1455692052841187,
                0.7865688800811768
            ],
            "min": [
                -0.3241630792617798,
                0.475803017616272,
                0.2096116542816162
            ]
        },
        {
            "bufferView": 13,
            "byteOffset": 0,
            "componentType": 5126,
            "count": 588,
            "type": "VEC3",
            "max": [
                0.947323739528656,
                0.9996238946914673,
                0.9633095860481262
            ],
            "min": [
                -0.9814197421073914,
                -0.9915215373039246,
                -0.9838208556175232
            ]
        },
        {
            "bufferView": 14,
            "byteOffset": 0,
            "componentType": 5126,
            "count": 588,
            "type": "VEC2",
            "max": [
                1.13348388671875,
                0.14053893089294434
            ],
            "min": [
                0.009999999776482582,
                0.01705491542816162
            ]
        },
        {
            "bufferView": 15,
            "byteOffset": 0,
            "componentType": 5123,
            "count": 588,
            "type": "SCALAR",
            "max": [
                587.0
            ],
            "min": [
                0.0
            ]
        },
        {
            "bufferView": 16,
            "byteOffset": 0,
            "componentType": 5126,
            "count": 504,
            "type": "VEC3",
            "max": [
                0.4475909471511841,
                0.5816901922225952,
                0.9840830564498901
            ],
            "min": [
                -0.5264595150947571,
                -0.07721919566392899,
                0.017240911722183229
            ]
        },
        {
            "bufferView": 17,
            "byteOffset": 0,
            "componentType": 5126,
            "count": 504,
            "type": "VEC3",
            "max": [
                0.9995923638343811,
                0.7281041741371155,
                0.9999970197677612
            ],
            "min": [
                -0.9999305009841919,
                -0.7742435932159424,
                -0.9999956488609314
            ]
        },
        {
            "bufferView": 18,
            "byteOffset": 0,
            "componentType": 5126,
            "count": 504,
            "type": "VEC2",
            "max": [
                0.917942225933075,
                0.9900000095367432
            ],
            "min": [
                0.009999999776482582,
                0.6992204189300537
            ]
        },
        {
            "bufferView": 19,
            "byteOffset": 0,
            "componentType": 5123,
            "count": 504,
            "type": "SCALAR",
            "max": [
                503.0
            ],
            "min": [
                0.0
            ]
        }
    ],
    "buffers": [
        {
            "byteLength": 98328,
            "uri": "D:/m/Models/Cactuses/To_stocks/C1.bin"
        }
    ],
    "bufferViews": [
        {
            "buffer": 0,
            "byteOffset": 0,
            "byteLength": 5616,
            "target": 34962
        },
        {
            "buffer": 0,
            "byteOffset": 5616,
            "byteLength": 5616,
            "target": 34962
        },
        {
            "buffer": 0,
            "byteOffset": 11232,
            "byteLength": 3744,
            "target": 34962
        },
        {
            "buffer": 0,
            "byteOffset": 14976,
            "byteLength": 936,
            "target": 34963
        },
        {
            "buffer": 0,
            "byteOffset": 15912,
            "byteLength": 1296,
            "target": 34962
        },
        {
            "buffer": 0,
            "byteOffset": 17208,
            "byteLength": 1296,
            "target": 34962
        },
        {
            "buffer": 0,
            "byteOffset": 18504,
            "byteLength": 864,
            "target": 34962
        },
        {
            "buffer": 0,
            "byteOffset": 19368,
            "byteLength": 216,
            "target": 34963
        },
        {
            "buffer": 0,
            "byteOffset": 19584,
            "byteLength": 14688,
            "target": 34962
        },
        {
            "buffer": 0,
            "byteOffset": 34272,
            "byteLength": 14688,
            "target": 34962
        },
        {
            "buffer": 0,
            "byteOffset": 48960,
            "byteLength": 9792,
            "target": 34962
        },
        {
            "buffer": 0,
            "byteOffset": 58752,
            "byteLength": 2448,
            "target": 34963
        },
        {
            "buffer": 0,
            "byteOffset": 61200,
            "byteLength": 7056,
            "target": 34962
        },
        {
            "buffer": 0,
            "byteOffset": 68256,
            "byteLength": 7056,
            "target": 34962
        },
        {
            "buffer": 0,
            "byteOffset": 75312,
            "byteLength": 4704,
            "target": 34962
        },
        {
            "buffer": 0,
            "byteOffset": 80016,
            "byteLength": 1176,
            "target": 34963
        },
        {
            "buffer": 0,
            "byteOffset": 81192,
            "byteLength": 6048,
            "target": 34962
        },
        {
            "buffer": 0,
            "byteOffset": 87240,
            "byteLength": 6048,
            "target": 34962
        },
        {
            "buffer": 0,
            "byteOffset": 93288,
            "byteLength": 4032,
            "target": 34962
        },
        {
            "buffer": 0,
            "byteOffset": 97320,
            "byteLength": 1008,
            "target": 34963
        }
    ],
    "materials": [
        {
            "name": "Default",
            "pbrMetallicRoughness": {
                "baseColorFactor": [
                    0.6000000238418579,
                    0.6000000238418579,
                    0.6000000238418579,
                    1.0
                ],
                "metallicFactor": 0.0
            }
        }
    ],
    "meshes": [
        {
            "name": "Plate_low",
            "primitives": [
                {
                    "mode": 4,
                    "material": 0,
                    "indices": 3,
                    "attributes": {
                        "POSITION": 0,
                        "NORMAL": 1,
                        "TEXCOORD_0": 2
                    }
                }
            ]
        },
        {
            "name": "Ground_low",
            "primitives": [
                {
                    "mode": 4,
                    "material": 0,
                    "indices": 7,
                    "attributes": {
                        "POSITION": 4,
                        "NORMAL": 5,
                        "TEXCOORD_0": 6
                    }
                }
            ]
        },
        {
            "name": "Cactus1_low",
            "primitives": [
                {
                    "mode": 4,
                    "material": 0,
                    "indices": 11,
                    "attributes": {
                        "POSITION": 8,
                        "NORMAL": 9,
                        "TEXCOORD_0": 10
                    }
                }
            ]
        },
        {
            "name": "spike1_low",
            "primitives": [
                {
                    "mode": 4,
                    "material": 0,
                    "indices": 15,
                    "attributes": {
                        "POSITION": 12,
                        "NORMAL": 13,
                        "TEXCOORD_0": 14
                    }
                }
            ]
        },
        {
            "name": "Pot_low",
            "primitives": [
                {
                    "mode": 4,
                    "material": 0,
                    "indices": 19,
                    "attributes": {
                        "POSITION": 16,
                        "NORMAL": 17,
                        "TEXCOORD_0": 18
                    }
                }
            ]
        }
    ],
    "nodes": [
        {
            "matrix": [
                20.975914001464845,
                0.0,
                0.0,
                0.0,
                0.0,
                20.975914001464845,
                0.0,
                0.0,
                0.0,
                0.0,
                20.975914001464845,
                0.0,
                0.9135398864746094,
                2.1195974349975588,
                -10.501413345336914,
                1.0
            ],
            "children": [
                1,
                2,
                3,
                4,
                5
            ]
        },
        {
            "name": "Plate_low",
            "mesh": 0
        },
        {
            "name": "Ground_low",
            "mesh": 1
        },
        {
            "name": "Cactus1_low",
            "mesh": 2
        },
        {
            "name": "spike1_low",
            "mesh": 3
        },
        {
            "name": "Pot_low",
            "mesh": 4
        }
    ],
    "scenes": [
        {
            "nodes": [
                0
            ]
        }
    ],
    "scene": 0
}