<svg width="1364" height="472" viewBox="0 0 1364 472" fill="none" xmlns="http://www.w3.org/2000/svg">
<path d="M51.2178 116.66L54.4378 137.17C54.6098 140.048 55.5869 142.82 57.2578 145.17C58.617 147.245 60.2369 149.137 62.0778 150.8C60.4537 146.091 59.2425 141.249 58.4578 136.33C57.6578 129.89 56.6478 110.19 56.6478 110.19L51.2178 116.66Z" fill="white" stroke="white" stroke-miterlimit="10" stroke-linecap="square"/>
<path d="M30.748 158.48C30.748 158.48 31.148 166.92 32.748 171.35C34.348 175.78 36.368 181.8 36.368 181.8L39.988 190.24L51.218 209.95L44.388 187.43C42.0916 182.404 40.3383 177.148 39.158 171.75C37.548 163.75 37.548 142.4 37.548 142.4L30.748 158.48Z" fill="white" stroke="white" stroke-miterlimit="10" stroke-linecap="square"/>
<path d="M152.948 347.86C113.948 325.92 60.4777 269.2 25.8877 217.18C44.0277 274.59 100.098 333.66 152.948 347.86Z" fill="white" stroke="white" stroke-miterlimit="10" stroke-linecap="square"/>
<path d="M220.178 401.69C176.378 392.43 108.418 354.28 59.8584 314.98C94.3384 364.34 165.498 403.94 220.178 401.69Z" fill="white" stroke="white" stroke-miterlimit="10" stroke-linecap="square"/>
<path d="M358.488 269.69C358.488 245.1 344.218 225.2 326.568 225.2C269.368 249.71 301.198 432.93 343.568 440.47C351.798 440.47 358.458 434.13 358.458 426.29C332.548 444.76 277.768 317.92 331.148 249.29C340.598 239.28 357.998 257.56 358.488 269.69Z" fill="white" stroke="white" stroke-miterlimit="10" stroke-linecap="square"/>
<path d="M669.518 453.82L554.268 442.65L437.608 413.65L423.248 320.8L422.948 379.8H413.948C399.808 201.5 348.388 134.8 300.478 225.16C373.418 150.6 391.308 339.36 394.308 422.72L549.398 457.58L242.478 455.75H239.658H238.058C113.948 454.35 16.058 353.99 16.058 227.44C24.468 76.19 162.678 4.38 284.448 17.84C282.118 18.35 279.778 18.91 277.448 19.53C247.608 27.53 219.028 44.63 211.728 59.64C192.168 87.52 160.308 91.46 115.118 83.19C64.018 93.86 79.238 151.75 82.208 166.41C79.578 234.75 96.378 293.93 111.128 291.57C117.798 291.57 123.198 287.49 123.198 282.44C91.468 290.91 66.998 147.44 115.128 157.09C107.988 144.3 98.438 143.01 95.878 146.54V136.6C134.798 123.25 149.798 204.6 144.308 282.44L268.448 358.38L164.548 274.05L164.888 257.05L188.318 259.05L161.498 219.75C153.958 136.18 127.078 100.28 105.498 124.83C94.818 130.92 85.398 83.13 130.618 103.15L292.868 190.67L226.748 139.22C223.878 133.79 228.328 133.79 230.268 133.79L398.588 178.18C368.508 164.27 345.268 145.18 343.088 136.5L319.388 30.95C319.748 24.75 429.368 14.75 566.438 21.59C536.938 11.7 509.438 6.64 505.918 7.86L310.028 1L206.378 4.43C35.598 34.96 -0.672021 171.21 1.05798 239.41C1.05798 366.85 102.498 469.98 227.858 469.98L548.748 471.34L840.628 470.41C877.628 466.54 910.258 458.2 921.628 451.48C900.378 458.75 798.198 466.32 669.518 453.82ZM318.678 135.53L212.678 97.83C229.748 67.88 272.148 44.26 299.208 36.95L318.678 135.53Z" fill="white" stroke="white" stroke-width="0.5" stroke-miterlimit="10" stroke-linecap="square"/>
<path d="M925.428 448.23C924.405 449.596 923.08 450.709 921.558 451.48C924.748 450.37 926.158 449.26 925.428 448.23Z" fill="white" stroke="white" stroke-width="0.5" stroke-miterlimit="10" stroke-linecap="square"/>
<path d="M519.197 205.352C519.914 202.596 521.044 200.557 522.587 199.235C524.185 197.857 526.444 197.168 529.365 197.168C532.176 197.168 534.353 197.802 535.896 199.069C537.439 200.337 538.596 202.459 539.368 205.435L564.664 280H554.744L530.357 207.667C530.192 207.116 529.861 206.84 529.365 206.84C528.869 206.84 528.539 207.116 528.373 207.667L503.987 280H493.901L519.197 205.352ZM584.036 280C581.281 280 579.214 279.339 577.836 278.016C576.514 276.693 575.852 274.627 575.852 271.816V197.333H585.194V267.765C585.194 269.088 585.414 269.97 585.855 270.411C586.296 270.852 587.178 271.072 588.5 271.072H624.212V280H584.036ZM658.571 280C652.289 280 647.356 279.146 643.774 277.437C640.192 275.674 637.602 272.863 636.003 269.005C634.405 265.092 633.606 259.719 633.606 252.885V224.448C633.606 217.449 634.433 212.02 636.086 208.163C637.795 204.25 640.578 201.467 644.435 199.813C648.348 198.16 653.804 197.333 660.803 197.333H686.43V206.261H660.886C656.036 206.261 652.344 206.785 649.809 207.832C647.274 208.824 645.483 210.615 644.435 213.205C643.443 215.74 642.947 219.488 642.947 224.448V252.885C642.947 257.845 643.499 261.62 644.601 264.211C645.703 266.746 647.577 268.537 650.222 269.584C652.923 270.576 656.863 271.072 662.043 271.072C667.059 271.072 670.889 270.659 673.534 269.832C676.235 268.95 678.108 267.517 679.155 265.533C680.258 263.549 680.809 260.711 680.809 257.019V244.453C680.809 243.131 680.588 242.249 680.147 241.808C679.707 241.367 678.825 241.147 677.502 241.147H661.465V232.384H681.966C684.722 232.384 686.761 233.045 688.083 234.368C689.461 235.691 690.15 237.757 690.15 240.568V257.019C690.15 262.805 689.379 267.352 687.835 270.659C686.292 273.965 683.757 276.363 680.23 277.851C676.758 279.284 671.991 280 665.929 280H658.571ZM731.28 280.413C724.832 280.413 719.624 279.476 715.656 277.603C711.688 275.674 708.767 272.67 706.893 268.592C705.02 264.459 704.083 259.058 704.083 252.389V224.944C704.083 218.276 705.02 212.902 706.893 208.824C708.767 204.691 711.688 201.687 715.656 199.813C719.624 197.884 724.832 196.92 731.28 196.92H735.165C741.613 196.92 746.821 197.884 750.789 199.813C754.757 201.687 757.678 204.691 759.552 208.824C761.426 212.902 762.363 218.276 762.363 224.944V252.389C762.363 259.058 761.426 264.459 759.552 268.592C757.678 272.67 754.757 275.674 750.789 277.603C746.821 279.476 741.613 280.413 735.165 280.413H731.28ZM733.264 271.568C738.224 271.568 742.109 270.962 744.92 269.749C747.786 268.537 749.852 266.553 751.12 263.797C752.388 261.042 753.021 257.239 753.021 252.389V224.944C753.021 220.094 752.388 216.292 751.12 213.536C749.852 210.78 747.786 208.796 744.92 207.584C742.109 206.372 738.224 205.765 733.264 205.765C728.249 205.765 724.308 206.372 721.443 207.584C718.632 208.796 716.593 210.78 715.325 213.536C714.058 216.292 713.424 220.094 713.424 224.944V252.389C713.424 257.239 714.058 261.042 715.325 263.797C716.593 266.553 718.632 268.537 721.443 269.749C724.308 270.962 728.249 271.568 733.264 271.568ZM778.684 205.517C778.684 202.762 779.346 200.723 780.668 199.4C781.991 198.022 784.058 197.333 786.868 197.333H807.122C813.239 197.333 818.089 198.05 821.671 199.483C825.253 200.916 827.844 203.23 829.442 206.427C831.095 209.623 831.922 213.949 831.922 219.405V227.341C831.922 233.514 830.544 238.143 827.788 241.229C825.088 244.26 820.596 246.244 814.314 247.181L835.89 280H825.308L800.178 240.485H805.303C809.767 240.485 813.239 240.1 815.719 239.328C818.199 238.501 819.963 237.151 821.01 235.277C822.057 233.404 822.58 230.758 822.58 227.341V219.405C822.58 215.988 822.084 213.343 821.092 211.469C820.1 209.596 818.42 208.273 816.05 207.501C813.68 206.675 810.318 206.261 805.964 206.261H791.332C790.01 206.261 789.128 206.482 788.687 206.923C788.246 207.364 788.026 208.245 788.026 209.568V280H778.684V205.517ZM857.655 197.333V280H848.313V197.333H857.655ZM895.222 206.261H870.422V197.333H929.198V206.261H904.564V280H895.222V206.261ZM989.833 241.56H950.897V280H941.556V197.333H950.897V232.549H989.833V197.333H999.174V280H989.833V241.56ZM1017.6 206.096C1017.6 200.089 1020.61 197.085 1026.61 197.085C1029.64 197.085 1031.93 197.747 1033.47 199.069C1035.02 200.392 1036.42 202.376 1037.69 205.021L1059.1 248.173C1059.43 248.835 1059.76 249.165 1060.09 249.165C1060.42 249.165 1060.78 248.835 1061.17 248.173L1082.5 205.021C1083.76 202.321 1085.17 200.337 1086.71 199.069C1088.25 197.747 1090.54 197.085 1093.57 197.085C1099.64 197.085 1102.67 200.089 1102.67 206.096V280H1093.33V208.163C1093.33 207.391 1093.02 207.005 1092.42 207.005C1092.14 207.005 1091.92 207.088 1091.75 207.253C1091.59 207.419 1091.42 207.694 1091.26 208.08L1069.77 251.48C1068.5 254.18 1067.15 256.137 1065.71 257.349C1064.28 258.562 1062.35 259.168 1059.93 259.168C1057.56 259.168 1055.68 258.562 1054.31 257.349C1052.93 256.137 1051.58 254.18 1050.26 251.48L1029.01 208.163C1028.85 207.777 1028.68 207.501 1028.51 207.336C1028.35 207.116 1028.13 207.005 1027.85 207.005C1027.25 207.005 1026.94 207.391 1026.94 208.163V280H1017.6V206.096Z" fill="white"/>
<path d="M702.248 403.165C695.965 403.165 691.143 402.559 687.781 401.347C684.42 400.079 682.05 397.957 680.672 394.981C679.294 392.005 678.605 387.762 678.605 382.251V378.613H687.947V381.837C687.947 385.475 688.388 388.148 689.269 389.856C690.151 391.564 691.777 392.749 694.147 393.411C696.516 394.017 700.236 394.32 705.307 394.32C710.542 394.32 714.4 393.989 716.88 393.328C719.36 392.667 721.041 391.509 721.923 389.856C722.804 388.148 723.245 385.557 723.245 382.085C723.245 378.338 722.832 375.61 722.005 373.901C721.179 372.193 719.415 370.732 716.715 369.52C714.069 368.308 709.468 366.847 702.909 365.139C696.076 363.32 691.005 361.612 687.699 360.013C684.447 358.36 682.105 356.1 680.672 353.235C679.294 350.314 678.605 346.125 678.605 340.669C678.605 335.324 679.294 331.218 680.672 328.352C682.05 325.431 684.42 323.337 687.781 322.069C691.198 320.802 696.048 320.168 702.331 320.168H709.109C715.282 320.168 720.021 320.774 723.328 321.987C726.635 323.144 728.977 325.156 730.355 328.021C731.732 330.887 732.421 334.993 732.421 340.339V344.72H723.08V341.248C723.08 337.721 722.639 335.131 721.757 333.477C720.876 331.769 719.25 330.612 716.88 330.005C714.51 329.344 710.845 329.013 705.885 329.013C700.76 329.013 696.93 329.344 694.395 330.005C691.915 330.667 690.206 331.824 689.269 333.477C688.388 335.076 687.947 337.528 687.947 340.835C687.947 344.527 688.36 347.228 689.187 348.936C690.013 350.644 691.749 352.077 694.395 353.235C697.04 354.392 701.587 355.77 708.035 357.368C714.924 359.132 719.994 360.812 723.245 362.411C726.497 363.954 728.867 366.213 730.355 369.189C731.843 372.11 732.587 376.409 732.587 382.085C732.587 387.596 731.898 391.84 730.52 394.816C729.142 397.792 726.745 399.941 723.328 401.264C719.966 402.532 715.089 403.165 708.696 403.165H702.248ZM758.866 390.765C758.866 392.088 759.086 392.97 759.527 393.411C759.968 393.852 760.85 394.072 762.172 394.072H799.62V403H757.708C754.953 403 752.886 402.339 751.508 401.016C750.186 399.693 749.524 397.627 749.524 394.816V328.517C749.524 325.762 750.186 323.723 751.508 322.4C752.831 321.022 754.898 320.333 757.708 320.333H799.62V329.261H762.172C760.85 329.261 759.968 329.482 759.527 329.923C759.086 330.364 758.866 331.245 758.866 332.568V356.624H797.884V364.891H758.866V390.765ZM816.126 328.517C816.126 325.762 816.787 323.723 818.11 322.4C819.433 321.022 821.499 320.333 824.31 320.333H844.563C850.681 320.333 855.53 321.05 859.113 322.483C862.695 323.916 865.285 326.23 866.883 329.427C868.537 332.623 869.363 336.949 869.363 342.405V350.341C869.363 356.514 867.985 361.143 865.23 364.229C862.529 367.26 858.038 369.244 851.755 370.181L873.331 403H862.75L837.619 363.485H842.745C847.209 363.485 850.681 363.1 853.161 362.328C855.641 361.501 857.404 360.151 858.451 358.277C859.498 356.404 860.022 353.758 860.022 350.341V342.405C860.022 338.988 859.526 336.343 858.534 334.469C857.542 332.596 855.861 331.273 853.491 330.501C851.121 329.675 847.76 329.261 843.406 329.261H828.774C827.451 329.261 826.569 329.482 826.129 329.923C825.688 330.364 825.467 331.245 825.467 332.568V403H816.126V328.517ZM888.483 320.333L912.869 392.667C913.035 393.218 913.365 393.493 913.861 393.493C914.357 393.493 914.688 393.218 914.853 392.667L939.24 320.333H949.16L923.864 394.899C923.093 397.875 921.935 399.996 920.392 401.264C918.849 402.532 916.672 403.165 913.861 403.165C910.941 403.165 908.681 402.504 907.083 401.181C905.54 399.804 904.41 397.737 903.693 394.981L878.397 320.333H888.483ZM969.084 320.333V403H959.743V320.333H969.084ZM1010.21 403C1003.87 403 998.909 402.201 995.327 400.603C991.745 398.949 989.182 396.304 987.639 392.667C986.151 388.974 985.407 383.932 985.407 377.539V346.291C985.407 339.732 986.151 334.607 987.639 330.915C989.182 327.167 991.745 324.467 995.327 322.813C998.909 321.16 1003.87 320.333 1010.21 320.333H1037.9V329.261H1014.42C1008.97 329.261 1004.86 329.757 1002.11 330.749C999.35 331.686 997.421 333.34 996.319 335.709C995.272 338.079 994.748 341.606 994.748 346.291V377.539C994.748 382.058 995.272 385.475 996.319 387.789C997.421 390.104 999.35 391.73 1002.11 392.667C1004.86 393.604 1008.97 394.072 1014.42 394.072H1037.9V403H1010.21ZM1062.81 390.765C1062.81 392.088 1063.03 392.97 1063.47 393.411C1063.91 393.852 1064.79 394.072 1066.12 394.072H1103.57V403H1061.65C1058.9 403 1056.83 402.339 1055.45 401.016C1054.13 399.693 1053.47 397.627 1053.47 394.816V328.517C1053.47 325.762 1054.13 323.723 1055.45 322.4C1056.78 321.022 1058.84 320.333 1061.65 320.333H1103.57V329.261H1066.12C1064.79 329.261 1063.91 329.482 1063.47 329.923C1063.03 330.364 1062.81 331.245 1062.81 332.568V356.624H1101.83V364.891H1062.81V390.765Z" fill="white"/>
<path d="M457.992 158C451.654 158 446.694 157.201 443.112 155.603C439.53 153.949 436.967 151.304 435.424 147.667C433.936 143.974 433.192 138.932 433.192 132.539V101.291C433.192 94.7324 433.936 89.6071 435.424 85.9147C436.967 82.1671 439.53 79.4667 443.112 77.8133C446.694 76.16 451.654 75.3333 457.992 75.3333H485.685V84.2613H462.208C456.752 84.2613 452.646 84.7573 449.891 85.7493C447.135 86.6862 445.206 88.3396 444.104 90.7093C443.057 93.0791 442.533 96.6062 442.533 101.291V132.539C442.533 137.058 443.057 140.475 444.104 142.789C445.206 145.104 447.135 146.73 449.891 147.667C452.646 148.604 456.752 149.072 462.208 149.072H485.685V158H457.992ZM519.193 83.352C519.91 80.5964 521.04 78.5573 522.583 77.2347C524.181 75.8569 526.441 75.168 529.361 75.168C532.172 75.168 534.349 75.8018 535.892 77.0693C537.435 78.3369 538.593 80.4587 539.364 83.4347L564.66 158H554.74L530.353 85.6667C530.188 85.1156 529.857 84.84 529.361 84.84C528.865 84.84 528.535 85.1156 528.369 85.6667L503.983 158H493.897L519.193 83.352ZM575.849 83.5173C575.849 80.7618 576.51 78.7227 577.833 77.4C579.155 76.0222 581.222 75.3333 584.033 75.3333H604.286C610.403 75.3333 615.253 76.0498 618.835 77.4827C622.417 78.9156 625.008 81.2302 626.606 84.4267C628.259 87.6231 629.086 91.9493 629.086 97.4053V105.341C629.086 111.514 627.708 116.143 624.953 119.229C622.252 122.26 617.761 124.244 611.478 125.181L633.054 158H622.473L597.342 118.485H602.467C606.931 118.485 610.403 118.1 612.883 117.328C615.363 116.501 617.127 115.151 618.174 113.277C619.221 111.404 619.745 108.758 619.745 105.341V97.4053C619.745 93.9884 619.249 91.3431 618.257 89.4693C617.265 87.5956 615.584 86.2729 613.214 85.5013C610.844 84.6747 607.482 84.2613 603.129 84.2613H588.497C587.174 84.2613 586.292 84.4818 585.851 84.9227C585.41 85.3636 585.19 86.2453 585.19 87.568V158H575.849V83.5173Z" fill="white"/>
</svg>
